<?xml version="1.0" encoding="UTF-8"?>
<svg id="main_logo" xmlns="http://www.w3.org/2000/svg" version="1.1" viewBox="0 0 2114.75 2114.77">
  <!-- Generator: Adobe Illustrator 29.8.4, SVG Export Plug-In . SVG Version: 2.1.1 Build 6)  -->
  <defs>
    <style>
      .st0 {
        fill-rule: evenodd;
      }

      .st0, .st1, .st2, .st3 {
        fill: #fff;
      }

      .st4 {
        fill: #d9211b;
      }

      .st4, .st5, .st6 {
        stroke: #fff;
        stroke-width: 32.36px;
      }

      .st4, .st6 {
        stroke-linejoin: round;
      }

      .st7, .st1, .st3 {
        isolation: isolate;
      }

      .st1 {
        font-family: National2-Bold, 'National 2';
        font-size: 209.11px;
        font-weight: 700;
      }

      .st5 {
        stroke-linecap: round;
        stroke-miterlimit: 10;
      }

      .st5, .st6 {
        fill: none;
      }

      .st3 {
        font-family: National2-Regular, 'National 2';
        font-size: 114.54px;
      }

      .st8 {
        fill: #1a1460;
      }

      .st9 {
        fill: #002599;
      }
    </style>
  </defs>
  <path class="st9" d="M1057.38,0C473.4,0,0,473.41,0,1057.38h0c0,81.04,9.15,159.94,26.41,235.76,51.85,227.69,177.21,427.39,349.77,572.9,184.01,155.16,421.66,248.73,681.19,248.73,583.98,0,1057.38-473.41,1057.38-1057.38h0C2114.75,473.41,1641.35,0,1057.37,0h.01Z"/>
  <g>
    <g class="st7">
      <g class="st7">
        <text class="st1" transform="translate(431.58 481.72) rotate(-45.19)"><tspan x="0" y="0">I</tspan></text>
      </g>
    </g>
    <g class="st7">
      <g class="st7">
        <text class="st1" transform="translate(471.26 438.08) rotate(-38.46)"><tspan x="0" y="0">D</tspan></text>
      </g>
    </g>
    <g class="st7">
      <g class="st7">
        <text class="st1" transform="translate(580.17 352.15) rotate(-29.95)"><tspan x="0" y="0">E</tspan></text>
      </g>
    </g>
    <g class="st7">
      <g class="st7">
        <text class="st1" transform="translate(684.23 293.59) rotate(-23.76)"><tspan x="0" y="0">-</tspan></text>
      </g>
    </g>
    <g class="st7">
      <g class="st7">
        <text class="st1" transform="translate(745.9 264.71) rotate(-17.45)"><tspan x="0" y="0">S</tspan></text>
      </g>
    </g>
    <g class="st7">
      <g class="st7">
        <text class="st1" transform="translate(857.33 228.08) rotate(-8.51)"><tspan x="0" y="0">H</tspan></text>
      </g>
    </g>
    <g class="st7">
      <g class="st7">
        <text class="st1" transform="translate(1001.55 207.2) rotate(.47)"><tspan x="0" y="0">E</tspan></text>
      </g>
    </g>
    <g class="st7">
      <g class="st7">
        <text class="st1" transform="translate(1119.77 207.62) rotate(8.67)"><tspan x="0" y="0">P</tspan></text>
      </g>
    </g>
    <g class="st7">
      <g class="st7">
        <text class="st1" transform="translate(1243.13 225.23) rotate(17.61)"><tspan x="0" y="0">H</tspan></text>
      </g>
    </g>
    <g class="st7">
      <g class="st7">
        <text class="st1" transform="translate(1381.93 269.95) rotate(26.42)"><tspan x="0" y="0">E</tspan></text>
      </g>
    </g>
    <g class="st7">
      <g class="st7">
        <text class="st1" transform="translate(1488.11 321.54) rotate(35.02)"><tspan x="0" y="0">R</tspan></text>
      </g>
    </g>
    <g class="st7">
      <g class="st7">
        <text class="st1" transform="translate(1599.01 398.54) rotate(44.34)"><tspan x="0" y="0">D</tspan></text>
      </g>
    </g>
  </g>
  <g class="st7">
    <g class="st7">
      <text class="st3" transform="translate(680.73 1962.37)"><tspan x="0" y="0">b</tspan></text>
    </g>
    <g class="st7">
      <text class="st3" transform="translate(746.48 1962.37)"><tspan x="0" y="0">y</tspan></text>
    </g>
  </g>
  <path class="st0" d="M898.42,1961.77h-36.96v-85.09h36.96c26.63,0,39.95,13.41,39.95,40.22,0,29.91-13.33,44.87-39.95,44.87h0ZM877.26,1948.07h18.78c17.69,0,26.53-10.39,26.53-31.18,0-17.7-8.84-26.56-26.53-26.56h-18.78v57.74h0Z"/>
  <polygon class="st0" points="954.93 1961.77 938.7 1961.77 974.9 1876.68 991.89 1876.68 1028.86 1961.77 1011.87 1961.77 1001.14 1938.56 973.83 1938.56 979.25 1924.88 996.97 1924.88 983.01 1892.92 954.93 1961.77"/>
  <polygon class="st0" points="1019.93 1876.68 1084.63 1876.68 1084.63 1890.36 1060.19 1890.36 1060.19 1961.77 1044.39 1961.77 1044.39 1890.36 1019.93 1890.36 1019.93 1876.68"/>
  <polygon class="st0" points="1092.75 1961.77 1076.52 1961.77 1112.72 1876.68 1129.71 1876.68 1166.68 1961.77 1149.68 1961.77 1138.95 1938.56 1111.64 1938.56 1117.06 1924.88 1134.77 1924.88 1120.82 1892.92 1092.75 1961.77"/>
  <path class="st8" d="M400.97,1084.42c-48.55-247.4-16.68-469.31-12.57-497.28,99.25-15.79,223.01-44.43,359.09-98.11,125.3-49.43,228.03-107.07,307.63-159.05,79.6,51.98,182.33,109.62,307.63,159.05,136.08,53.68,259.84,82.32,359.09,98.11,6.99,47.61,94.43,657.26-271.35,997.95-78.4,73.03-172.85,124.2-172.85,124.2-86.8,47.38-166.22,71.34-222.52,84.17-56.3-12.82-135.72-36.79-222.52-84.17,0,0-94.44-51.17-172.85-124.2-98.44-91.69-164.05-202.86-207.24-317.3"/>
  <path class="st4" d="M1121.98,580.5c-.21-18.01-20.37-28.57-35.27-18.45-29.25,19.86-63.33,48.7-93.54,89.65-31.01,42.03-49.23,85-60.03,121.78l191.04,50.37c-.73-64.33-1.47-179.02-2.2-243.34h0Z"/>
  <path class="st0" d="M1214.13,1961.77h-36.96v-85.09h36.96c26.64,0,39.96,13.41,39.96,40.22,0,29.91-13.31,44.87-39.96,44.87ZM1192.97,1948.07h18.78c17.68,0,26.54-10.39,26.54-31.18,0-17.7-8.86-26.56-26.54-26.56h-18.78v57.74h0Z"/>
  <path class="st0" d="M1264.79,1919.35c0-28.86,14.28-43.28,42.82-43.28s42.14,14.42,42.14,43.28-14.04,43.04-42.14,43.04-41.54-14.35-42.82-43.04ZM1307.61,1948.67c17.16,0,25.75-9.89,25.75-29.69s-8.59-29.24-25.75-29.24-26.41,9.75-26.41,29.24,8.8,29.69,26.41,29.69Z"/>
  <path class="st0" d="M1415.68,1927.34v19.93c-3.65.95-6.91,1.42-9.78,1.42-19.32,0-28.97-10.22-28.97-30.64,0-18.86,10.23-28.29,30.7-28.29,8.54,0,16.49,1.59,23.85,4.77v-14.29c-7.35-2.77-15.7-4.16-25.04-4.16-30.6,0-45.92,13.98-45.92,41.97,0,29.55,15.04,44.34,45.13,44.34,10.35,0,18.95-1.51,25.82-4.53v-44.51h-25.52l-5.34,14h15.07Z"/>
  <path class="st5" d="M1055.12,1793.45c-56.3-12.82-135.72-36.79-222.52-84.17,0,0-94.44-51.17-172.85-124.2-98.44-91.69-164.05-202.86-207.24-317.3"/>
  <path class="st5" d="M400.97,1084.42c-40.19-204.8-25.27-392.14-16.61-466.44,2.11-18.1,15.82-32.66,33.76-35.83,93.78-16.62,206.56-44.67,329.36-93.11,114.06-45,209.43-96.8,285.66-144.94,13.42-8.48,30.52-8.48,43.94,0,76.23,48.14,171.6,99.94,285.66,144.94,122.81,48.45,235.58,76.5,329.36,93.11,17.93,3.18,31.65,17.71,33.76,35.8,16,137.3,53.43,660.89-275.38,967.14-78.4,73.03-172.85,124.2-172.85,124.2"/>
  <path class="st4" d="M452.52,1267.78c25.77,70.48,91.11,219.67,242.61,348.08,141.27,119.74,287.06,161.72,359.99,177.59,21.04-31.48,34.04-57.97,40.95-73.08,0,0,82.03-179.38,73.35-462.76-.03-.93-.26-5.49,1.51-11,.57-1.78,1.35-3.58,2.39-5.44,21.94-39.11,118.14,3.77,235.48-32.38,16.69-5.14,32-9.95,49.94-21.57,56.72-36.74,73.91-97.76,78.19-113.97,9.13-34.59,14.8-56.07,3.29-74.06-14.12-22.08-47.81-16.06-148.33-33.38-66.44-11.45-83.35-20.42-93.02-26.4-38.1-23.59-51.4-55.08-66.45-76.57-26.15-37.32-81.61-78.73-212.53-89.36-.73-64.33-1.47-128.65-2.2-192.98-.21-18.01-20.37-28.57-35.27-18.45-29.25,19.86-63.33,48.7-93.54,89.65-67.43,91.38-74.41,187.23-76.01,214.15-.35,5.91-.23,5.29-.46,9.72-3.25,65.02-103.04,205.39-266.73,328.65-27.64,20.81-58.63,42.29-93.14,63.56"/>
  <path class="st2" d="M1152.07,969.32c-21.54-13.28-43.08-26.57-64.62-39.85-5.35-3.3-3.01-11.53,3.27-11.53h64.62c3.44,0,6.23,2.79,6.23,6.23v39.85c0,4.88-5.35,7.86-9.5,5.3h0Z"/>
  <path class="st2" d="M970.95,777.75v-89c0-4-5.25-5.48-7.33-2.07-8.12,13.34-16.49,29.17-23.99,47.48-10.05,24.51-15.94,47.13-19.47,66.04-.61,3.28,2.83,5.8,5.77,4.22,14.32-7.73,28.64-15.46,42.95-23.2,1.28-.69,2.08-2.03,2.08-3.48h-.01Z"/>
  <path class="st6" d="M634.87,1131.37c21.72,59.39,76.78,185.13,204.45,293.34,119.05,100.91,241.91,136.29,303.37,149.66"/>
</svg>